<?xml version="1.0" standalone="no"?>
<!DOCTYPE svg PUBLIC "-//W3C//DTD SVG 20010904//EN"
 "http://www.w3.org/TR/2001/REC-SVG-20010904/DTD/svg10.dtd">
<svg version="1.0" xmlns="http://www.w3.org/2000/svg"
 width="260.000000pt" height="260.000000pt" viewBox="0 0 260.000000 260.000000"
 preserveAspectRatio="xMidYMid meet">
<metadata>
Created by potrace 1.11, written by Peter Selinger 2001-2013
</metadata>
<g transform="translate(0.000000,260.000000) scale(0.100000,-0.100000)"
fill="#000000" stroke="none">
<path d="M713 1952 c-32 -3 -33 -5 -15 -52 3 -8 6 -17 6 -20 1 -3 23 -68 48
-145 25 -77 98 -300 162 -495 l116 -356 135 1 c73 0 136 3 138 5 4 5 96 275
102 300 2 8 30 90 62 183 40 114 60 162 65 150 4 -10 53 -158 108 -328 l102
-310 131 0 c80 -1 135 3 139 10 4 5 67 190 139 410 72 220 149 453 171 518 22
65 38 120 35 123 -4 4 -148 7 -219 5 -26 -1 -29 -8 -128 -313 -56 -172 -109
-333 -117 -356 l-16 -44 -19 64 c-21 68 -108 341 -168 528 l-37 115 -122 0
-123 0 -117 -354 -116 -353 -23 73 c-13 41 -41 128 -62 194 -21 66 -61 193
-90 283 -28 89 -54 162 -58 163 -29 2 -203 3 -229 1z"/>
<path d="M415 1794 c-71 -37 -77 -126 -10 -170 36 -24 121 -24 157 0 35 23 54
80 39 118 -22 59 -120 86 -186 52z"/>
<path d="M385 1510 c-1 -3 -3 -146 -2 -318 l0 -313 100 3 100 3 0 308 c0 169
-3 311 -7 315 -9 8 -186 11 -191 2z"/>
</g>
</svg>
